# Blender v2.77 (sub 0) OBJ File: 'cube.blend'
# www.blender.org
mtllib cube.mtl
o cube_Cube_Cube.001
v 0.844631 -1.000000 0.844631
v -0.844631 -1.000000 0.844631
v -0.844631 -1.000000 -0.844631
v -1.000000 0.844631 -0.844631
v -1.000000 -0.844631 -0.844631
v -1.000000 -0.844631 0.844631
v -0.844631 1.000000 0.844631
v 0.844631 1.000000 0.844631
v 0.844631 1.000000 -0.844631
v -0.844631 0.844631 1.000000
v -0.844631 -0.844631 1.000000
v 0.844631 -0.844631 1.000000
v 0.844631 0.844631 -1.000000
v 0.844631 -0.844631 -1.000000
v -0.844631 -0.844631 -1.000000
v 0.844631 -1.000000 -0.844631
v 0.844631 -0.988173 -0.904088
v 0.905578 -0.973900 -0.905578
v 0.844631 -0.954494 -0.954494
v 0.902486 -0.946593 -0.946593
v 0.904088 -0.988173 -0.844631
v 0.946593 -0.946593 -0.902486
v 0.934333 -0.934333 -0.934333
v 0.904088 -0.844631 -0.988173
v 0.905578 -0.905578 -0.973900
v 0.954494 -0.844631 -0.954494
v 0.946593 -0.902486 -0.946593
v 0.844631 -0.904088 -0.988173
v 1.000000 -0.844631 -0.844631
v 0.988173 -0.904088 -0.844631
v 0.973900 -0.905578 -0.905578
v 0.954494 -0.954494 -0.844631
v 0.988173 -0.844631 -0.904088
v 1.000000 -0.844631 0.844631
v 0.988173 -0.844631 0.904088
v 0.973900 -0.905578 0.905578
v 0.954494 -0.844631 0.954494
v 0.946593 -0.902486 0.946593
v 0.988173 -0.904088 0.844631
v 0.946593 -0.946593 0.902486
v 0.934333 -0.934333 0.934333
v 0.844631 -0.904088 0.988173
v 0.905578 -0.905578 0.973900
v 0.844631 -0.954494 0.954494
v 0.902486 -0.946593 0.946593
v 0.904088 -0.844631 0.988173
v 0.904088 -0.988173 0.844631
v 0.905578 -0.973900 0.905578
v 0.954494 -0.954494 0.844631
v 0.844631 -0.988173 0.904088
v -0.904088 -0.844631 0.988173
v -0.905578 -0.905578 0.973900
v -0.954494 -0.844631 0.954494
v -0.946593 -0.902486 0.946593
v -0.844631 -0.904088 0.988173
v -0.902486 -0.946593 0.946593
v -0.934333 -0.934333 0.934333
v -0.988173 -0.904088 0.844631
v -0.973900 -0.905578 0.905578
v -0.954494 -0.954494 0.844631
v -0.946593 -0.946593 0.902486
v -0.988173 -0.844631 0.904088
v -0.844631 -0.988173 0.904088
v -0.905578 -0.973900 0.905578
v -0.844631 -0.954494 0.954494
v -0.904088 -0.988173 0.844631
v -0.988173 -0.844631 -0.904088
v -0.973900 -0.905578 -0.905578
v -0.954494 -0.844631 -0.954494
v -0.946593 -0.902486 -0.946593
v -0.988173 -0.904088 -0.844631
v -0.946593 -0.946593 -0.902486
v -0.934333 -0.934333 -0.934333
v -0.844631 -0.904088 -0.988173
v -0.905578 -0.905578 -0.973900
v -0.844631 -0.954494 -0.954494
v -0.902486 -0.946593 -0.946593
v -0.904088 -0.844631 -0.988173
v -0.904088 -0.988173 -0.844631
v -0.905578 -0.973900 -0.905578
v -0.954494 -0.954494 -0.844631
v -0.844631 -0.988173 -0.904088
v 1.000000 0.844631 -0.844631
v 0.988173 0.844631 -0.904088
v 0.973900 0.905578 -0.905578
v 0.954494 0.844631 -0.954494
v 0.946593 0.902486 -0.946593
v 0.988173 0.904088 -0.844631
v 0.946593 0.946593 -0.902486
v 0.934333 0.934333 -0.934333
v 0.844631 0.904088 -0.988173
v 0.905578 0.905578 -0.973900
v 0.844631 0.954494 -0.954494
v 0.902486 0.946593 -0.946593
v 0.904088 0.844631 -0.988173
v 0.904088 0.988173 -0.844631
v 0.905578 0.973900 -0.905578
v 0.954494 0.954494 -0.844631
v 0.844631 0.988173 -0.904088
v 1.000000 0.844631 0.844631
v 0.988173 0.904088 0.844631
v 0.973900 0.905578 0.905578
v 0.954494 0.954494 0.844631
v 0.946593 0.946593 0.902486
v 0.988173 0.844631 0.904088
v 0.946593 0.902486 0.946593
v 0.934333 0.934333 0.934333
v 0.844631 0.988173 0.904088
v 0.905578 0.973900 0.905578
v 0.844631 0.954494 0.954494
v 0.902486 0.946593 0.946593
v 0.904088 0.988173 0.844631
v 0.844631 0.844631 1.000000
v 0.904088 0.844631 0.988173
v 0.905578 0.905578 0.973900
v 0.954494 0.844631 0.954494
v 0.844631 0.904088 0.988173
v -0.844631 0.904088 0.988173
v -0.905578 0.905578 0.973900
v -0.844631 0.954494 0.954494
v -0.902486 0.946593 0.946593
v -0.904088 0.844631 0.988173
v -0.946593 0.902486 0.946593
v -0.934333 0.934333 0.934333
v -0.904088 0.988173 0.844631
v -0.905578 0.973900 0.905578
v -0.954494 0.954494 0.844631
v -0.946593 0.946593 0.902486
v -0.844631 0.988173 0.904088
v -1.000000 0.844631 0.844631
v -0.988173 0.844631 0.904088
v -0.973900 0.905578 0.905578
v -0.954494 0.844631 0.954494
v -0.988173 0.904088 0.844631
v -0.988173 0.904088 -0.844631
v -0.973900 0.905578 -0.905578
v -0.954494 0.954494 -0.844631
v -0.946593 0.946593 -0.902486
v -0.988173 0.844631 -0.904088
v -0.946593 0.902486 -0.946593
v -0.934333 0.934333 -0.934333
v -0.844631 1.000000 -0.844631
v -0.844631 0.988173 -0.904088
v -0.905578 0.973900 -0.905578
v -0.844631 0.954494 -0.954494
v -0.902486 0.946593 -0.946593
v -0.904088 0.988173 -0.844631
v -0.844631 0.844631 -1.000000
v -0.904088 0.844631 -0.988173
v -0.905578 0.905578 -0.973900
v -0.954494 0.844631 -0.954494
v -0.844631 0.904088 -0.988173
vn 0.2194 -0.9569 -0.1903
vn 0.1861 -0.8170 -0.5459
vn 0.5547 -0.8131 -0.1769
vn 0.4687 -0.7488 -0.4687
vn 0.1903 -0.2194 -0.9569
vn 0.5459 -0.1861 -0.8170
vn 0.1769 -0.5547 -0.8131
vn 0.4687 -0.4687 -0.7488
vn 0.9569 -0.1903 -0.2194
vn 0.8170 -0.5459 -0.1861
vn 0.8131 -0.1769 -0.5547
vn 0.7488 -0.4687 -0.4687
vn 0.9569 -0.2194 0.1903
vn 0.8170 -0.1861 0.5459
vn 0.8131 -0.5547 0.1769
vn 0.7488 -0.4687 0.4687
vn 0.2194 -0.1903 0.9569
vn 0.1861 -0.5458 0.8170
vn 0.5547 -0.1768 0.8131
vn 0.4687 -0.4687 0.7488
vn 0.1903 -0.9569 0.2194
vn 0.5459 -0.8170 0.1861
vn 0.1768 -0.8131 0.5547
vn 0.4687 -0.7488 0.4687
vn -0.1903 -0.2194 0.9569
vn -0.5458 -0.1861 0.8170
vn -0.1769 -0.5547 0.8131
vn -0.4687 -0.4687 0.7488
vn -0.9569 -0.1903 0.2194
vn -0.8170 -0.5459 0.1861
vn -0.8131 -0.1769 0.5547
vn -0.7488 -0.4687 0.4687
vn -0.2194 -0.9569 0.1903
vn -0.1861 -0.8170 0.5459
vn -0.5547 -0.8131 0.1768
vn -0.4687 -0.7488 0.4687
vn -0.9569 -0.2194 -0.1903
vn -0.8170 -0.1861 -0.5458
vn -0.8131 -0.5547 -0.1769
vn -0.7488 -0.4687 -0.4687
vn -0.2194 -0.1903 -0.9569
vn -0.1861 -0.5459 -0.8170
vn -0.5547 -0.1768 -0.8131
vn -0.4687 -0.4687 -0.7488
vn -0.1903 -0.9569 -0.2194
vn -0.5459 -0.8170 -0.1861
vn -0.1768 -0.8131 -0.5547
vn -0.4687 -0.7488 -0.4687
vn 0.9569 0.2194 -0.1903
vn 0.8170 0.1861 -0.5459
vn 0.8131 0.5547 -0.1769
vn 0.7488 0.4687 -0.4687
vn 0.2194 0.1903 -0.9569
vn 0.1861 0.5458 -0.8170
vn 0.5547 0.1768 -0.8131
vn 0.4687 0.4687 -0.7488
vn 0.1903 0.9569 -0.2194
vn 0.5459 0.8170 -0.1861
vn 0.1768 0.8131 -0.5547
vn 0.4687 0.7488 -0.4687
vn 0.9569 0.1903 0.2194
vn 0.8170 0.5459 0.1861
vn 0.8131 0.1769 0.5547
vn 0.7488 0.4687 0.4687
vn 0.2194 0.9569 0.1903
vn 0.1861 0.8170 0.5459
vn 0.5547 0.8131 0.1769
vn 0.4687 0.7488 0.4687
vn 0.1903 0.2194 0.9569
vn 0.5459 0.1861 0.8170
vn 0.1769 0.5547 0.8131
vn 0.4687 0.4687 0.7488
vn -0.2194 0.1903 0.9569
vn -0.1861 0.5459 0.8170
vn -0.5547 0.1768 0.8131
vn -0.4687 0.4687 0.7488
vn -0.1903 0.9569 0.2194
vn -0.5459 0.8170 0.1861
vn -0.1768 0.8131 0.5547
vn -0.4687 0.7488 0.4687
vn -0.9569 0.2194 0.1903
vn -0.8170 0.1861 0.5458
vn -0.8131 0.5547 0.1769
vn -0.7488 0.4687 0.4687
vn -0.9569 0.1903 -0.2194
vn -0.8170 0.5459 -0.1861
vn -0.8131 0.1769 -0.5547
vn -0.7488 0.4687 -0.4687
vn -0.2194 0.9569 -0.1903
vn -0.1861 0.8170 -0.5459
vn -0.5547 0.8131 -0.1768
vn -0.4687 0.7488 -0.4687
vn -0.1903 0.2194 -0.9569
vn -0.5458 0.1861 -0.8170
vn -0.1769 0.5547 -0.8131
vn -0.4687 0.4687 -0.7488
vn 0.1951 -0.0000 -0.9808
vn 0.5556 -0.0000 -0.8315
vn 0.8315 -0.0000 -0.5556
vn 0.9808 -0.0000 -0.1951
vn 0.1951 0.9808 -0.0000
vn 0.5556 0.8315 -0.0000
vn 0.8315 0.5556 -0.0000
vn 0.9808 0.1951 -0.0000
vn 0.1951 0.0000 0.9808
vn 0.5556 0.0000 0.8315
vn 0.8315 0.0000 0.5556
vn 0.9808 0.0000 0.1951
vn 0.1951 -0.9808 0.0000
vn 0.5556 -0.8315 0.0000
vn 0.8315 -0.5556 0.0000
vn 0.9808 -0.1951 0.0000
vn 0.0000 0.9808 0.1951
vn 0.0000 0.8315 0.5556
vn 0.0000 0.5556 0.8315
vn 0.0000 0.1951 0.9808
vn -0.9808 -0.0000 0.1951
vn -0.8315 0.0000 0.5556
vn -0.5556 0.0000 0.8315
vn -0.1951 0.0000 0.9808
vn 0.0000 -0.9808 0.1951
vn 0.0000 -0.8315 0.5556
vn 0.0000 -0.5556 0.8315
vn 0.0000 -0.1951 0.9808
vn -0.1951 0.9808 -0.0000
vn -0.5556 0.8315 -0.0000
vn -0.8315 0.5556 -0.0000
vn -0.9808 0.1951 -0.0000
vn -0.1951 -0.0000 -0.9808
vn -0.5556 -0.0000 -0.8315
vn -0.8315 -0.0000 -0.5556
vn -0.9808 -0.0000 -0.1951
vn -0.1951 -0.9808 0.0000
vn -0.5556 -0.8315 0.0000
vn -0.8315 -0.5556 0.0000
vn -0.9808 -0.1951 0.0000
vn 0.0000 0.9808 -0.1951
vn 0.0000 0.8315 -0.5556
vn 0.0000 0.5556 -0.8315
vn 0.0000 0.1951 -0.9808
vn 0.0000 -0.9808 -0.1951
vn 0.0000 -0.8315 -0.5556
vn 0.0000 -0.5556 -0.8315
vn 0.0000 -0.1951 -0.9808
vn 0.1903 -0.9569 -0.2194
vn 0.1768 -0.8131 -0.5547
vn 0.5459 -0.8170 -0.1861
vn 0.5045 -0.7007 -0.5045
vn 0.2194 -0.1903 -0.9569
vn 0.5547 -0.1768 -0.8131
vn 0.1861 -0.5459 -0.8170
vn 0.5045 -0.5045 -0.7007
vn 0.9569 -0.2194 -0.1903
vn 0.8131 -0.5547 -0.1769
vn 0.8170 -0.1861 -0.5458
vn 0.7007 -0.5045 -0.5045
vn 0.9569 -0.1903 0.2194
vn 0.8131 -0.1769 0.5547
vn 0.8170 -0.5459 0.1861
vn 0.7007 -0.5045 0.5045
vn 0.1903 -0.2194 0.9569
vn 0.1768 -0.5547 0.8131
vn 0.5458 -0.1861 0.8170
vn 0.5045 -0.5045 0.7007
vn 0.2194 -0.9569 0.1903
vn 0.5547 -0.8131 0.1768
vn 0.1861 -0.8170 0.5459
vn 0.5045 -0.7007 0.5045
vn -0.2194 -0.1903 0.9569
vn -0.5547 -0.1768 0.8131
vn -0.1861 -0.5458 0.8170
vn -0.5045 -0.5045 0.7007
vn -0.9569 -0.2194 0.1903
vn -0.8131 -0.5547 0.1768
vn -0.8170 -0.1861 0.5459
vn -0.7007 -0.5045 0.5045
vn -0.1903 -0.9569 0.2194
vn -0.1768 -0.8131 0.5547
vn -0.5459 -0.8170 0.1861
vn -0.5045 -0.7007 0.5045
vn -0.9569 -0.1903 -0.2194
vn -0.8131 -0.1769 -0.5547
vn -0.8170 -0.5459 -0.1861
vn -0.7007 -0.5045 -0.5045
vn -0.1903 -0.2194 -0.9569
vn -0.1769 -0.5547 -0.8131
vn -0.5459 -0.1861 -0.8170
vn -0.5045 -0.5045 -0.7007
vn -0.2194 -0.9569 -0.1903
vn -0.5547 -0.8131 -0.1769
vn -0.1861 -0.8170 -0.5458
vn -0.5045 -0.7007 -0.5045
vn 0.9569 0.1903 -0.2194
vn 0.8131 0.1769 -0.5547
vn 0.8170 0.5459 -0.1861
vn 0.7007 0.5045 -0.5045
vn 0.1903 0.2194 -0.9569
vn 0.1768 0.5547 -0.8131
vn 0.5458 0.1861 -0.8170
vn 0.5045 0.5045 -0.7007
vn 0.2194 0.9569 -0.1903
vn 0.5547 0.8131 -0.1768
vn 0.1861 0.8170 -0.5459
vn 0.5045 0.7007 -0.5045
vn 0.9569 0.2194 0.1903
vn 0.8131 0.5547 0.1769
vn 0.8170 0.1861 0.5458
vn 0.7007 0.5045 0.5045
vn 0.1903 0.9569 0.2194
vn 0.1768 0.8131 0.5547
vn 0.5459 0.8170 0.1861
vn 0.5045 0.7007 0.5045
vn 0.2194 0.1903 0.9569
vn 0.5547 0.1768 0.8131
vn 0.1861 0.5459 0.8170
vn 0.5045 0.5045 0.7007
vn -0.1903 0.2194 0.9569
vn -0.1769 0.5547 0.8131
vn -0.5459 0.1861 0.8170
vn -0.5045 0.5045 0.7007
vn -0.2194 0.9569 0.1903
vn -0.5547 0.8131 0.1769
vn -0.1861 0.8170 0.5458
vn -0.5045 0.7007 0.5045
vn -0.9569 0.1903 0.2194
vn -0.8131 0.1769 0.5547
vn -0.8170 0.5459 0.1861
vn -0.7007 0.5045 0.5045
vn -0.9569 0.2194 -0.1903
vn -0.8131 0.5547 -0.1768
vn -0.8170 0.1861 -0.5459
vn -0.7007 0.5045 -0.5045
vn -0.1903 0.9569 -0.2194
vn -0.1768 0.8131 -0.5547
vn -0.5459 0.8170 -0.1861
vn -0.5045 0.7007 -0.5045
vn -0.2194 0.1903 -0.9569
vn -0.5547 0.1768 -0.8131
vn -0.1861 0.5458 -0.8170
vn -0.5045 0.5045 -0.7007
vn 0.0000 -1.0000 0.0000
vn -1.0000 0.0000 0.0000
vn 0.0000 1.0000 -0.0000
vn 0.0000 0.0000 1.0000
vn 0.0000 -0.0000 -1.0000
vn 1.0000 0.0000 0.0000
usemtl blue
s 1
f 16//1 17//1 18//1
f 17//2 19//2 20//2
f 21//3 18//3 22//3
f 20//4 23//4 22//4
f 14//5 24//5 25//5
f 24//6 26//6 27//6
f 28//7 25//7 20//7
f 27//8 23//8 20//8
f 29//9 30//9 31//9
f 30//10 32//10 22//10
f 33//11 31//11 27//11
f 22//12 23//12 27//12
f 34//13 35//13 36//13
f 35//14 37//14 38//14
f 39//15 36//15 40//15
f 38//16 41//16 40//16
f 12//17 42//17 43//17
f 42//18 44//18 45//18
f 46//19 43//19 38//19
f 45//20 41//20 38//20
f 1//21 47//21 48//21
f 47//22 49//22 40//22
f 50//23 48//23 45//23
f 40//24 41//24 45//24
f 11//25 51//25 52//25
f 51//26 53//26 54//26
f 55//27 52//27 56//27
f 54//28 57//28 56//28
f 6//29 58//29 59//29
f 58//30 60//30 61//30
f 62//31 59//31 54//31
f 61//32 57//32 54//32
f 2//33 63//33 64//33
f 63//34 65//34 56//34
f 66//35 64//35 61//35
f 56//36 57//36 61//36
f 5//37 67//37 68//37
f 67//38 69//38 70//38
f 71//39 68//39 72//39
f 70//40 73//40 72//40
f 15//41 74//41 75//41
f 74//42 76//42 77//42
f 78//43 75//43 70//43
f 77//44 73//44 70//44
f 3//45 79//45 80//45
f 79//46 81//46 72//46
f 82//47 80//47 77//47
f 72//48 73//48 77//48
f 83//49 84//49 85//49
f 84//50 86//50 87//50
f 88//51 85//51 89//51
f 87//52 90//52 89//52
f 13//53 91//53 92//53
f 91//54 93//54 94//54
f 95//55 92//55 87//55
f 94//56 90//56 87//56
f 9//57 96//57 97//57
f 96//58 98//58 89//58
f 99//59 97//59 94//59
f 89//60 90//60 94//60
f 100//61 101//61 102//61
f 101//62 103//62 104//62
f 105//63 102//63 106//63
f 104//64 107//64 106//64
f 8//65 108//65 109//65
f 108//66 110//66 111//66
f 112//67 109//67 104//67
f 111//68 107//68 104//68
f 113//69 114//69 115//69
f 114//70 116//70 106//70
f 117//71 115//71 111//71
f 106//72 107//72 111//72
f 10//73 118//73 119//73
f 118//74 120//74 121//74
f 122//75 119//75 123//75
f 121//76 124//76 123//76
f 7//77 125//77 126//77
f 125//78 127//78 128//78
f 129//79 126//79 121//79
f 128//80 124//80 121//80
f 130//81 131//81 132//81
f 131//82 133//82 123//82
f 134//83 132//83 128//83
f 123//84 124//84 128//84
f 4//85 135//85 136//85
f 135//86 137//86 138//86
f 139//87 136//87 140//87
f 138//88 141//88 140//88
f 142//89 143//89 144//89
f 143//90 145//90 146//90
f 147//91 144//91 138//91
f 146//92 141//92 138//92
f 148//93 149//93 150//93
f 149//94 151//94 140//94
f 152//95 150//95 146//95
f 140//96 141//96 146//96
f 13//97 95//97 24//97
f 95//98 86//98 26//98
f 86//99 84//99 33//99
f 84//100 83//100 29//100
f 8//101 112//101 96//101
f 112//102 103//102 98//102
f 103//103 101//103 88//103
f 101//104 100//104 83//104
f 12//105 46//105 114//105
f 46//106 37//106 116//106
f 37//107 35//107 105//107
f 35//108 34//108 100//108
f 16//109 21//109 47//109
f 21//110 32//110 49//110
f 32//111 30//111 39//111
f 30//112 29//112 34//112
f 7//113 129//113 108//113
f 129//114 120//114 110//114
f 120//115 118//115 117//115
f 118//116 10//116 113//116
f 6//117 62//117 131//117
f 62//118 53//118 133//118
f 53//119 51//119 122//119
f 51//120 11//120 10//120
f 1//121 50//121 63//121
f 50//122 44//122 65//122
f 44//123 42//123 55//123
f 42//124 12//124 11//124
f 142//125 147//125 125//125
f 147//126 137//126 127//126
f 137//127 135//127 134//127
f 135//128 4//128 130//128
f 15//129 78//129 149//129
f 78//130 69//130 151//130
f 69//131 67//131 139//131
f 67//132 5//132 4//132
f 2//133 66//133 79//133
f 66//134 60//134 81//134
f 60//135 58//135 71//135
f 58//136 6//136 5//136
f 9//137 99//137 143//137
f 99//138 93//138 145//138
f 93//139 91//139 152//139
f 91//140 13//140 148//140
f 3//141 82//141 17//141
f 82//142 76//142 19//142
f 76//143 74//143 28//143
f 74//144 15//144 14//144
f 21//145 16//145 18//145
f 18//146 17//146 20//146
f 32//147 21//147 22//147
f 18//148 20//148 22//148
f 28//149 14//149 25//149
f 25//150 24//150 27//150
f 19//151 28//151 20//151
f 25//152 27//152 20//152
f 33//153 29//153 31//153
f 31//154 30//154 22//154
f 26//155 33//155 27//155
f 31//156 22//156 27//156
f 39//157 34//157 36//157
f 36//158 35//158 38//158
f 49//159 39//159 40//159
f 36//160 38//160 40//160
f 46//161 12//161 43//161
f 43//162 42//162 45//162
f 37//163 46//163 38//163
f 43//164 45//164 38//164
f 50//165 1//165 48//165
f 48//166 47//166 40//166
f 44//167 50//167 45//167
f 48//168 40//168 45//168
f 55//169 11//169 52//169
f 52//170 51//170 54//170
f 65//171 55//171 56//171
f 52//172 54//172 56//172
f 62//173 6//173 59//173
f 59//174 58//174 61//174
f 53//175 62//175 54//175
f 59//176 61//176 54//176
f 66//177 2//177 64//177
f 64//178 63//178 56//178
f 60//179 66//179 61//179
f 64//180 56//180 61//180
f 71//181 5//181 68//181
f 68//182 67//182 70//182
f 81//183 71//183 72//183
f 68//184 70//184 72//184
f 78//185 15//185 75//185
f 75//186 74//186 77//186
f 69//187 78//187 70//187
f 75//188 77//188 70//188
f 82//189 3//189 80//189
f 80//190 79//190 72//190
f 76//191 82//191 77//191
f 80//192 72//192 77//192
f 88//193 83//193 85//193
f 85//194 84//194 87//194
f 98//195 88//195 89//195
f 85//196 87//196 89//196
f 95//197 13//197 92//197
f 92//198 91//198 94//198
f 86//199 95//199 87//199
f 92//200 94//200 87//200
f 99//201 9//201 97//201
f 97//202 96//202 89//202
f 93//203 99//203 94//203
f 97//204 89//204 94//204
f 105//205 100//205 102//205
f 102//206 101//206 104//206
f 116//207 105//207 106//207
f 102//208 104//208 106//208
f 112//209 8//209 109//209
f 109//210 108//210 111//210
f 103//211 112//211 104//211
f 109//212 111//212 104//212
f 117//213 113//213 115//213
f 115//214 114//214 106//214
f 110//215 117//215 111//215
f 115//216 106//216 111//216
f 122//217 10//217 119//217
f 119//218 118//218 121//218
f 133//219 122//219 123//219
f 119//220 121//220 123//220
f 129//221 7//221 126//221
f 126//222 125//222 128//222
f 120//223 129//223 121//223
f 126//224 128//224 121//224
f 134//225 130//225 132//225
f 132//226 131//226 123//226
f 127//227 134//227 128//227
f 132//228 123//228 128//228
f 139//229 4//229 136//229
f 136//230 135//230 138//230
f 151//231 139//231 140//231
f 136//232 138//232 140//232
f 147//233 142//233 144//233
f 144//234 143//234 146//234
f 137//235 147//235 138//235
f 144//236 146//236 138//236
f 152//237 148//237 150//237
f 150//238 149//238 140//238
f 145//239 152//239 146//239
f 150//240 140//240 146//240
f 14//97 13//97 24//97
f 24//98 95//98 26//98
f 26//99 86//99 33//99
f 33//100 84//100 29//100
f 9//101 8//101 96//101
f 96//102 112//102 98//102
f 98//103 103//103 88//103
f 88//104 101//104 83//104
f 113//105 12//105 114//105
f 114//106 46//106 116//106
f 116//107 37//107 105//107
f 105//108 35//108 100//108
f 1//109 16//109 47//109
f 47//110 21//110 49//110
f 49//111 32//111 39//111
f 39//112 30//112 34//112
f 8//113 7//113 108//113
f 108//114 129//114 110//114
f 110//115 120//115 117//115
f 117//116 118//116 113//116
f 130//117 6//117 131//117
f 131//118 62//118 133//118
f 133//119 53//119 122//119
f 122//120 51//120 10//120
f 2//121 1//121 63//121
f 63//122 50//122 65//122
f 65//123 44//123 55//123
f 55//124 42//124 11//124
f 7//125 142//125 125//125
f 125//126 147//126 127//126
f 127//127 137//127 134//127
f 134//128 135//128 130//128
f 148//129 15//129 149//129
f 149//130 78//130 151//130
f 151//131 69//131 139//131
f 139//132 67//132 4//132
f 3//133 2//133 79//133
f 79//134 66//134 81//134
f 81//135 60//135 71//135
f 71//136 58//136 5//136
f 142//137 9//137 143//137
f 143//138 99//138 145//138
f 145//139 93//139 152//139
f 152//140 91//140 148//140
f 16//141 3//141 17//141
f 17//142 82//142 19//142
f 19//143 76//143 28//143
f 28//144 74//144 14//144
usemtl white
f 1//241 2//241 3//241
f 4//242 5//242 6//242
f 7//243 8//243 9//243
f 10//244 11//244 12//244
f 13//245 14//245 15//245
f 100//246 34//246 29//246
f 16//241 1//241 3//241
f 130//242 4//242 6//242
f 142//243 7//243 9//243
f 113//244 10//244 12//244
f 148//245 13//245 15//245
f 83//246 100//246 29//246
